<?xml version="1.0" encoding="UTF-8" standalone="no"?>
<!DOCTYPE svg PUBLIC "-//W3C//DTD SVG 1.1//EN" "http://www.w3.org/Graphics/SVG/1.1/DTD/svg11.dtd">
<svg width="100%" height="100%" viewBox="0 0 1189 1064" version="1.1" xmlns="http://www.w3.org/2000/svg" xmlns:xlink="http://www.w3.org/1999/xlink" xml:space="preserve" xmlns:serif="http://www.serif.com/" style="fill-rule:evenodd;clip-rule:evenodd;stroke-linejoin:round;stroke-miterlimit:2;">
    <g transform="matrix(1,0,0,1,-142.808,-106.308)">
        <g id="Group-1" serif:id="Group 1" opacity="0.5">
            <path id="Ellipse-1-copy" serif:id="Ellipse 1 copy" d="M942.025,367.646L1143.36,166.308L1146.19,169.136L944.588,370.741C948.2,376.52 947.487,384.226 942.46,389.253C937.433,394.28 929.727,394.993 923.948,391.381L145.636,1169.69L142.808,1166.86L920.854,388.818C915.392,382.947 915.528,373.759 921.247,368.04C926.966,362.321 936.154,362.185 942.025,367.646ZM838.941,595.731L1328.36,106.308L1331.19,109.136L841.769,598.559C846.279,604.429 845.838,612.875 840.46,618.253C835.082,623.631 826.636,624.072 820.766,619.562L330.636,1109.69L327.808,1106.86L817.938,616.734C813.428,610.864 813.869,602.418 819.247,597.04C824.625,591.662 833.071,591.221 838.941,595.731Z" style="fill:rgb(127,183,179);"/>
        </g>
    </g>
</svg>
